<?xml version="1.0" encoding="UTF-8" standalone="no"?>
<svg
   xmlns:dc="http://purl.org/dc/elements/1.1/"
   xmlns:cc="http://creativecommons.org/ns#"
   xmlns:rdf="http://www.w3.org/1999/02/22-rdf-syntax-ns#"
   xmlns:svg="http://www.w3.org/2000/svg"
   xmlns="http://www.w3.org/2000/svg"
   xmlns:xlink="http://www.w3.org/1999/xlink"
   xmlns:sodipodi="http://sodipodi.sourceforge.net/DTD/sodipodi-0.dtd"
   xmlns:inkscape="http://www.inkscape.org/namespaces/inkscape"
   height="306.12918pt"
   version="1.1"
   viewBox="0 0 399.13868 306.12918"
   width="399.13867pt"
   id="svg373"
   sodipodi:docname="routes.svg"
   inkscape:version="1.0.1 (3bc2e813f5, 2020-09-07)"
   inkscape:export-filename="/home/alex/code/navbench/analysis/2020-11/routes.png"
   inkscape:export-xdpi="300"
   inkscape:export-ydpi="300">
  <sodipodi:namedview
     pagecolor="#ffffff"
     bordercolor="#666666"
     borderopacity="1"
     objecttolerance="10"
     gridtolerance="10"
     guidetolerance="10"
     inkscape:pageopacity="0"
     inkscape:pageshadow="2"
     inkscape:window-width="1680"
     inkscape:window-height="1021"
     id="namedview375"
     showgrid="false"
     fit-margin-top="0"
     fit-margin-left="0"
     fit-margin-right="0"
     fit-margin-bottom="0"
     inkscape:zoom="1.0971817"
     inkscape:cx="127.07387"
     inkscape:cy="188.53523"
     inkscape:window-x="0"
     inkscape:window-y="0"
     inkscape:window-maximized="1"
     inkscape:current-layer="figure_1" />
  <metadata
     id="metadata2">
    <rdf:RDF>
      <cc:Work>
        <dc:type
           rdf:resource="http://purl.org/dc/dcmitype/StillImage" />
        <dc:date>2020-11-19T13:08:28.313644</dc:date>
        <dc:format>image/svg+xml</dc:format>
        <dc:creator>
          <cc:Agent>
            <dc:title>Matplotlib v3.3.3, https://matplotlib.org/</dc:title>
          </cc:Agent>
        </dc:creator>
        <dc:title></dc:title>
      </cc:Work>
    </rdf:RDF>
  </metadata>
  <defs
     id="defs6">
    <style
       type="text/css"
       id="style4">*{stroke-linecap:butt;stroke-linejoin:round;}</style>
    <clipPath
       clipPathUnits="userSpaceOnUse"
       id="clipPath820">
      <rect
         style="fill:#ff0000;stroke-width:0.75"
         id="rect822"
         width="357.12"
         height="266.112"
         x="57.600002"
         y="41.472" />
    </clipPath>
  </defs>
  <g
     id="figure_1"
     transform="translate(-24.207813,-31.050125)">
    <image
       sodipodi:absref="/home/alex/code/navbench/analysis/2020-11/stanmer_park.png"
       xlink:href="stanmer_park.png"
       clip-path="url(#clipPath820)"
       y="-15.937242"
       x="-23.154871"
       id="image814"
       preserveAspectRatio="none"
       height="421.66449"
       width="694.05005" />
    <g
       id="axes_1">
      <g
         id="matplotlib.axis_1">
        <g
           id="xtick_1">
          <g
             id="line2d_1">
            <defs
               id="defs15">
              <path
                 d="M 0,0 V 3.5"
                 id="m6637d592de"
                 style="stroke:#000000;stroke-width:0.8" />
            </defs>
            <g
               id="g19">
              <use
                 style="stroke:#000000;stroke-width:0.8"
                 x="72.550079"
                 xlink:href="#m6637d592de"
                 y="307.58401"
                 id="use17"
                 width="100%"
                 height="100%" />
            </g>
          </g>
          <g
             id="text_1">
            <!-- 704450 -->
            <g
               transform="matrix(0.1,0,0,-0.1,53.462578,322.18244)"
               id="g40">
              <defs
                 id="defs26">
                <path
                   d="m 8.203125,72.90625 h 46.875 V 68.703125 L 28.609375,0 H 18.3125 L 43.21875,64.59375 H 8.203125 Z"
                   id="DejaVuSans-55" />
                <path
                   d="m 31.78125,66.40625 q -7.609375,0 -11.453125,-7.5 Q 16.5,51.421875 16.5,36.375 q 0,-14.984375 3.828125,-22.484375 3.84375,-7.5 11.453125,-7.5 7.671875,0 11.5,7.5 3.84375,7.5 3.84375,22.484375 0,15.046875 -3.84375,22.53125 -3.828125,7.5 -11.5,7.5 z m 0,7.8125 q 12.265625,0 18.734375,-9.703125 6.46875,-9.6875 6.46875,-28.140625 0,-18.40625 -6.46875,-28.109375 -6.46875,-9.6875 -18.734375,-9.6875 -12.25,0 -18.71875,9.6875 Q 6.59375,17.96875 6.59375,36.375 q 0,18.453125 6.46875,28.140625 6.46875,9.703125 18.71875,9.703125 z"
                   id="DejaVuSans-48" />
                <path
                   d="M 37.796875,64.3125 12.890625,25.390625 h 24.90625 z m -2.59375,8.59375 h 12.40625 V 25.390625 h 10.40625 V 17.1875 H 47.609375 V 0 h -9.8125 V 17.1875 H 4.890625 v 9.515625 z"
                   id="DejaVuSans-52" />
                <path
                   d="m 10.796875,72.90625 h 38.71875 v -8.3125 h -29.6875 V 46.734375 q 2.140625,0.734375 4.28125,1.09375 2.15625,0.359375 4.3125,0.359375 Q 40.625,48.1875 47.75,41.5 54.890625,34.8125 54.890625,23.390625 54.890625,11.625 47.5625,5.09375 40.234375,-1.421875 26.90625,-1.421875 q -4.59375,0 -9.359375,0.78125 -4.75,0.78125 -9.828125,2.34375 V 11.625 q 4.390625,-2.390625 9.078125,-3.5625 4.6875,-1.171875 9.90625,-1.171875 8.453125,0 13.375,4.4375 4.9375,4.4375 4.9375,12.0625 0,7.609375 -4.9375,12.046875 -4.921875,4.453125 -13.375,4.453125 -3.953125,0 -7.890625,-0.875 -3.921875,-0.875 -8.015625,-2.734375 z"
                   id="DejaVuSans-53" />
              </defs>
              <use
                 xlink:href="#DejaVuSans-55"
                 id="use28"
                 x="0"
                 y="0"
                 width="100%"
                 height="100%" />
              <use
                 x="63.623047"
                 xlink:href="#DejaVuSans-48"
                 id="use30"
                 y="0"
                 width="100%"
                 height="100%" />
              <use
                 x="127.24609"
                 xlink:href="#DejaVuSans-52"
                 id="use32"
                 y="0"
                 width="100%"
                 height="100%" />
              <use
                 x="190.86914"
                 xlink:href="#DejaVuSans-52"
                 id="use34"
                 y="0"
                 width="100%"
                 height="100%" />
              <use
                 x="254.49219"
                 xlink:href="#DejaVuSans-53"
                 id="use36"
                 y="0"
                 width="100%"
                 height="100%" />
              <use
                 x="318.11523"
                 xlink:href="#DejaVuSans-48"
                 id="use38"
                 y="0"
                 width="100%"
                 height="100%" />
            </g>
          </g>
        </g>
        <g
           id="xtick_2">
          <g
             id="line2d_2">
            <g
               id="g46">
              <use
                 style="stroke:#000000;stroke-width:0.8"
                 x="139.02487"
                 xlink:href="#m6637d592de"
                 y="307.58401"
                 id="use44"
                 width="100%"
                 height="100%" />
            </g>
          </g>
          <g
             id="text_2">
            <!-- 704460 -->
            <g
               transform="matrix(0.1,0,0,-0.1,119.93737,322.18244)"
               id="g64">
              <defs
                 id="defs50">
                <path
                   d="m 33.015625,40.375 q -6.640625,0 -10.53125,-4.546875 -3.875,-4.53125 -3.875,-12.4375 0,-7.859375 3.875,-12.4375 3.890625,-4.5625 10.53125,-4.5625 6.640625,0 10.515625,4.5625 3.875,4.578125 3.875,12.4375 0,7.90625 -3.875,12.4375 Q 39.65625,40.375 33.015625,40.375 Z M 52.59375,71.296875 V 62.3125 q -3.71875,1.75 -7.5,2.671875 -3.78125,0.9375 -7.5,0.9375 -9.765625,0 -14.921875,-6.59375 -5.140625,-6.59375 -5.875,-19.921875 2.875,4.25 7.21875,6.515625 4.359375,2.265625 9.578125,2.265625 10.984375,0 17.359375,-6.671875 6.375,-6.65625 6.375,-18.125 0,-11.234375 -6.640625,-18.03125 -6.640625,-6.78125 -17.671875,-6.78125 -12.65625,0 -19.34375,9.6875 -6.6875,9.703125 -6.6875,28.109375 0,17.28125 8.203125,27.5625 8.203125,10.28125 22.015625,10.28125 3.71875,0 7.5,-0.734375 3.78125,-0.734375 7.890625,-2.1875 z"
                   id="DejaVuSans-54" />
              </defs>
              <use
                 xlink:href="#DejaVuSans-55"
                 id="use52"
                 x="0"
                 y="0"
                 width="100%"
                 height="100%" />
              <use
                 x="63.623047"
                 xlink:href="#DejaVuSans-48"
                 id="use54"
                 y="0"
                 width="100%"
                 height="100%" />
              <use
                 x="127.24609"
                 xlink:href="#DejaVuSans-52"
                 id="use56"
                 y="0"
                 width="100%"
                 height="100%" />
              <use
                 x="190.86914"
                 xlink:href="#DejaVuSans-52"
                 id="use58"
                 y="0"
                 width="100%"
                 height="100%" />
              <use
                 x="254.49219"
                 xlink:href="#DejaVuSans-54"
                 id="use60"
                 y="0"
                 width="100%"
                 height="100%" />
              <use
                 x="318.11523"
                 xlink:href="#DejaVuSans-48"
                 id="use62"
                 y="0"
                 width="100%"
                 height="100%" />
            </g>
          </g>
        </g>
        <g
           id="xtick_3">
          <g
             id="line2d_3">
            <g
               id="g70">
              <use
                 style="stroke:#000000;stroke-width:0.8"
                 x="205.49965"
                 xlink:href="#m6637d592de"
                 y="307.58401"
                 id="use68"
                 width="100%"
                 height="100%" />
            </g>
          </g>
          <g
             id="text_3">
            <!-- 704470 -->
            <g
               transform="matrix(0.1,0,0,-0.1,186.41216,322.18244)"
               id="g85">
              <use
                 xlink:href="#DejaVuSans-55"
                 id="use73"
                 x="0"
                 y="0"
                 width="100%"
                 height="100%" />
              <use
                 x="63.623047"
                 xlink:href="#DejaVuSans-48"
                 id="use75"
                 y="0"
                 width="100%"
                 height="100%" />
              <use
                 x="127.24609"
                 xlink:href="#DejaVuSans-52"
                 id="use77"
                 y="0"
                 width="100%"
                 height="100%" />
              <use
                 x="190.86914"
                 xlink:href="#DejaVuSans-52"
                 id="use79"
                 y="0"
                 width="100%"
                 height="100%" />
              <use
                 x="254.49219"
                 xlink:href="#DejaVuSans-55"
                 id="use81"
                 y="0"
                 width="100%"
                 height="100%" />
              <use
                 x="318.11523"
                 xlink:href="#DejaVuSans-48"
                 id="use83"
                 y="0"
                 width="100%"
                 height="100%" />
            </g>
          </g>
        </g>
        <g
           id="xtick_4">
          <g
             id="line2d_4">
            <g
               id="g91">
              <use
                 style="stroke:#000000;stroke-width:0.8"
                 x="271.97446"
                 xlink:href="#m6637d592de"
                 y="307.58401"
                 id="use89"
                 width="100%"
                 height="100%" />
            </g>
          </g>
          <g
             id="text_4">
            <!-- 704480 -->
            <g
               transform="matrix(0.1,0,0,-0.1,252.88694,322.18244)"
               id="g109">
              <defs
                 id="defs95">
                <path
                   d="m 31.78125,34.625 q -7.03125,0 -11.0625,-3.765625 -4.015625,-3.765625 -4.015625,-10.34375 0,-6.59375 4.015625,-10.359375 4.03125,-3.765625 11.0625,-3.765625 7.03125,0 11.078125,3.78125 4.0625,3.796875 4.0625,10.34375 0,6.578125 -4.03125,10.34375 Q 38.875,34.625 31.78125,34.625 Z m -9.859375,4.1875 Q 15.578125,40.375 12.03125,44.71875 8.5,49.078125 8.5,55.328125 q 0,8.734375 6.21875,13.8125 6.234375,5.078125 17.0625,5.078125 10.890625,0 17.09375,-5.078125 6.203125,-5.078125 6.203125,-13.8125 0,-6.25 -3.546875,-10.609375 Q 48,40.375 41.703125,38.8125 q 7.125,-1.65625 11.09375,-6.5 3.984375,-4.828125 3.984375,-11.796875 0,-10.609375 -6.46875,-16.28125 -6.46875,-5.65625 -18.53125,-5.65625 -12.046875,0 -18.53125,5.65625 -6.46875,5.671875 -6.46875,16.28125 0,6.96875 4,11.796875 4.015625,4.84375 11.140625,6.5 z M 18.3125,54.390625 q 0,-5.65625 3.53125,-8.828125 3.546875,-3.171875 9.9375,-3.171875 6.359375,0 9.9375,3.171875 3.59375,3.171875 3.59375,8.828125 0,5.671875 -3.59375,8.84375 -3.578125,3.171875 -9.9375,3.171875 -6.390625,0 -9.9375,-3.171875 Q 18.3125,60.0625 18.3125,54.390625 Z"
                   id="DejaVuSans-56" />
              </defs>
              <use
                 xlink:href="#DejaVuSans-55"
                 id="use97"
                 x="0"
                 y="0"
                 width="100%"
                 height="100%" />
              <use
                 x="63.623047"
                 xlink:href="#DejaVuSans-48"
                 id="use99"
                 y="0"
                 width="100%"
                 height="100%" />
              <use
                 x="127.24609"
                 xlink:href="#DejaVuSans-52"
                 id="use101"
                 y="0"
                 width="100%"
                 height="100%" />
              <use
                 x="190.86914"
                 xlink:href="#DejaVuSans-52"
                 id="use103"
                 y="0"
                 width="100%"
                 height="100%" />
              <use
                 x="254.49219"
                 xlink:href="#DejaVuSans-56"
                 id="use105"
                 y="0"
                 width="100%"
                 height="100%" />
              <use
                 x="318.11523"
                 xlink:href="#DejaVuSans-48"
                 id="use107"
                 y="0"
                 width="100%"
                 height="100%" />
            </g>
          </g>
        </g>
        <g
           id="xtick_5">
          <g
             id="line2d_5">
            <g
               id="g115">
              <use
                 style="stroke:#000000;stroke-width:0.8"
                 x="338.44922"
                 xlink:href="#m6637d592de"
                 y="307.58401"
                 id="use113"
                 width="100%"
                 height="100%" />
            </g>
          </g>
          <g
             id="text_5">
            <!-- 704490 -->
            <g
               transform="matrix(0.1,0,0,-0.1,319.36173,322.18244)"
               id="g133">
              <defs
                 id="defs119">
                <path
                   d="M 10.984375,1.515625 V 10.5 Q 14.703125,8.734375 18.5,7.8125 q 3.8125,-0.921875 7.484375,-0.921875 9.765625,0 14.90625,6.5625 5.15625,6.5625 5.890625,19.953125 -2.828125,-4.203125 -7.1875,-6.453125 -4.34375,-2.25 -9.609375,-2.25 -10.9375,0 -17.3125,6.609375 -6.375,6.625 -6.375,18.109375 0,11.21875 6.640625,18 6.640625,6.796875 17.671875,6.796875 12.65625,0 19.3125,-9.703125 6.671875,-9.6875 6.671875,-28.140625 0,-17.234375 -8.1875,-27.515625 -8.171875,-10.28125 -21.984375,-10.28125 -3.71875,0 -7.53125,0.734375 -3.796875,0.734375 -7.90625,2.203125 z m 19.625,30.90625 q 6.640625,0 10.515625,4.53125 3.890625,4.546875 3.890625,12.46875 0,7.859375 -3.890625,12.421875 -3.875,4.5625 -10.515625,4.5625 -6.640625,0 -10.515625,-4.5625 -3.875,-4.5625 -3.875,-12.421875 0,-7.921875 3.875,-12.46875 3.875,-4.53125 10.515625,-4.53125 z"
                   id="DejaVuSans-57" />
              </defs>
              <use
                 xlink:href="#DejaVuSans-55"
                 id="use121"
                 x="0"
                 y="0"
                 width="100%"
                 height="100%" />
              <use
                 x="63.623047"
                 xlink:href="#DejaVuSans-48"
                 id="use123"
                 y="0"
                 width="100%"
                 height="100%" />
              <use
                 x="127.24609"
                 xlink:href="#DejaVuSans-52"
                 id="use125"
                 y="0"
                 width="100%"
                 height="100%" />
              <use
                 x="190.86914"
                 xlink:href="#DejaVuSans-52"
                 id="use127"
                 y="0"
                 width="100%"
                 height="100%" />
              <use
                 x="254.49219"
                 xlink:href="#DejaVuSans-57"
                 id="use129"
                 y="0"
                 width="100%"
                 height="100%" />
              <use
                 x="318.11523"
                 xlink:href="#DejaVuSans-48"
                 id="use131"
                 y="0"
                 width="100%"
                 height="100%" />
            </g>
          </g>
        </g>
        <g
           id="xtick_6">
          <g
             id="line2d_6">
            <g
               id="g139">
              <use
                 style="stroke:#000000;stroke-width:0.8"
                 x="404.92401"
                 xlink:href="#m6637d592de"
                 y="307.58401"
                 id="use137"
                 width="100%"
                 height="100%" />
            </g>
          </g>
          <g
             id="text_6">
            <!-- 704500 -->
            <g
               transform="matrix(0.1,0,0,-0.1,385.83652,322.18244)"
               id="g154">
              <use
                 xlink:href="#DejaVuSans-55"
                 id="use142"
                 x="0"
                 y="0"
                 width="100%"
                 height="100%" />
              <use
                 x="63.623047"
                 xlink:href="#DejaVuSans-48"
                 id="use144"
                 y="0"
                 width="100%"
                 height="100%" />
              <use
                 x="127.24609"
                 xlink:href="#DejaVuSans-52"
                 id="use146"
                 y="0"
                 width="100%"
                 height="100%" />
              <use
                 x="190.86914"
                 xlink:href="#DejaVuSans-53"
                 id="use148"
                 y="0"
                 width="100%"
                 height="100%" />
              <use
                 x="254.49219"
                 xlink:href="#DejaVuSans-48"
                 id="use150"
                 y="0"
                 width="100%"
                 height="100%" />
              <use
                 x="318.11523"
                 xlink:href="#DejaVuSans-48"
                 id="use152"
                 y="0"
                 width="100%"
                 height="100%" />
            </g>
          </g>
        </g>
        <g
           id="text_7">
          <!-- x (m) -->
          <g
             transform="matrix(0.1,0,0,-0.1,222.83969,335.86056)"
             id="g175">
            <defs
               id="defs163">
              <path
                 d="M 54.890625,54.6875 35.109375,28.078125 55.90625,0 H 45.3125 L 29.390625,21.484375 13.484375,0 H 2.875 L 24.125,28.609375 4.6875,54.6875 h 10.59375 l 14.5,-19.484375 14.5,19.484375 z"
                 id="DejaVuSans-120" />
              <path
                 id="DejaVuSans-32"
                 d="" />
              <path
                 d="M 31,75.875 Q 24.46875,64.65625 21.28125,53.65625 18.109375,42.671875 18.109375,31.390625 18.109375,20.125 21.3125,9.0625 24.515625,-2 31,-13.1875 H 23.1875 Q 15.875,-1.703125 12.234375,9.375 8.59375,20.453125 8.59375,31.390625 q 0,10.890625 3.609375,21.921875 3.625,11.046875 10.984375,22.5625 z"
                 id="DejaVuSans-40" />
              <path
                 d="M 52,44.1875 Q 55.375,50.25 60.0625,53.125 64.75,56 71.09375,56 q 8.546875,0 13.1875,-5.984375 4.640625,-5.96875 4.640625,-17 V 0 h -9.03125 v 32.71875 q 0,7.859375 -2.796875,11.65625 -2.78125,3.8125 -8.484375,3.8125 -6.984375,0 -11.046875,-4.640625 -4.046875,-4.625 -4.046875,-12.640625 V 0 h -9.03125 v 32.71875 q 0,7.90625 -2.78125,11.6875 -2.78125,3.78125 -8.59375,3.78125 -6.890625,0 -10.953125,-4.65625 -4.046875,-4.65625 -4.046875,-12.625 V 0 h -9.03125 v 54.6875 h 9.03125 v -8.5 q 3.078125,5.03125 7.375,7.421875 Q 29.78125,56 35.6875,56 41.65625,56 45.828125,52.96875 50,49.953125 52,44.1875 Z"
                 id="DejaVuSans-109" />
              <path
                 d="m 8.015625,75.875 h 7.8125 q 7.3125,-11.515625 10.953125,-22.5625 3.640625,-11.03125 3.640625,-21.921875 0,-10.9375 -3.640625,-22.015625 -3.640625,-11.078125 -10.953125,-22.5625 h -7.8125 Q 14.5,-2 17.703125,9.0625 20.90625,20.125 20.90625,31.390625 q 0,11.28125 -3.203125,22.265625 -3.203125,11 -9.6875,22.21875 z"
                 id="DejaVuSans-41" />
            </defs>
            <use
               xlink:href="#DejaVuSans-120"
               id="use165"
               x="0"
               y="0"
               width="100%"
               height="100%" />
            <use
               x="59.179688"
               xlink:href="#DejaVuSans-32"
               id="use167"
               y="0"
               width="100%"
               height="100%" />
            <use
               x="90.966797"
               xlink:href="#DejaVuSans-40"
               id="use169"
               y="0"
               width="100%"
               height="100%" />
            <use
               x="129.98047"
               xlink:href="#DejaVuSans-109"
               id="use171"
               y="0"
               width="100%"
               height="100%" />
            <use
               x="227.39258"
               xlink:href="#DejaVuSans-41"
               id="use173"
               y="0"
               width="100%"
               height="100%" />
          </g>
        </g>
      </g>
      <g
         id="matplotlib.axis_2">
        <g
           id="ytick_1">
          <g
             id="line2d_7">
            <defs
               id="defs180">
              <path
                 d="M 0,0 H -3.5"
                 id="m8c137b85a8"
                 style="stroke:#000000;stroke-width:0.8" />
            </defs>
            <g
               id="g184">
              <use
                 style="stroke:#000000;stroke-width:0.8"
                 x="57.599998"
                 xlink:href="#m8c137b85a8"
                 y="285.02353"
                 id="use182"
                 width="100%"
                 height="100%" />
            </g>
          </g>
          <g
             id="text_8">
            <!-- 60 -->
            <g
               transform="matrix(0.1,0,0,-0.1,37.875,288.82275)"
               id="g191">
              <use
                 xlink:href="#DejaVuSans-54"
                 id="use187"
                 x="0"
                 y="0"
                 width="100%"
                 height="100%" />
              <use
                 x="63.623047"
                 xlink:href="#DejaVuSans-48"
                 id="use189"
                 y="0"
                 width="100%"
                 height="100%" />
            </g>
          </g>
        </g>
        <g
           id="ytick_2">
          <g
             id="line2d_8">
            <g
               id="g197">
              <use
                 style="stroke:#000000;stroke-width:0.8"
                 x="57.599998"
                 xlink:href="#m8c137b85a8"
                 y="251.78613"
                 id="use195"
                 width="100%"
                 height="100%" />
            </g>
          </g>
          <g
             id="text_9">
            <!-- 65 -->
            <g
               transform="matrix(0.1,0,0,-0.1,37.875,255.58536)"
               id="g204">
              <use
                 xlink:href="#DejaVuSans-54"
                 id="use200"
                 x="0"
                 y="0"
                 width="100%"
                 height="100%" />
              <use
                 x="63.623047"
                 xlink:href="#DejaVuSans-53"
                 id="use202"
                 y="0"
                 width="100%"
                 height="100%" />
            </g>
          </g>
        </g>
        <g
           id="ytick_3">
          <g
             id="line2d_9">
            <g
               id="g210">
              <use
                 style="stroke:#000000;stroke-width:0.8"
                 x="57.599998"
                 xlink:href="#m8c137b85a8"
                 y="218.54874"
                 id="use208"
                 width="100%"
                 height="100%" />
            </g>
          </g>
          <g
             id="text_10">
            <!-- 70 -->
            <g
               transform="matrix(0.1,0,0,-0.1,37.875,222.34796)"
               id="g217">
              <use
                 xlink:href="#DejaVuSans-55"
                 id="use213"
                 x="0"
                 y="0"
                 width="100%"
                 height="100%" />
              <use
                 x="63.623047"
                 xlink:href="#DejaVuSans-48"
                 id="use215"
                 y="0"
                 width="100%"
                 height="100%" />
            </g>
          </g>
        </g>
        <g
           id="ytick_4">
          <g
             id="line2d_10">
            <g
               id="g223">
              <use
                 style="stroke:#000000;stroke-width:0.8"
                 x="57.599998"
                 xlink:href="#m8c137b85a8"
                 y="185.31136"
                 id="use221"
                 width="100%"
                 height="100%" />
            </g>
          </g>
          <g
             id="text_11">
            <!-- 75 -->
            <g
               transform="matrix(0.1,0,0,-0.1,37.875,189.11057)"
               id="g230">
              <use
                 xlink:href="#DejaVuSans-55"
                 id="use226"
                 x="0"
                 y="0"
                 width="100%"
                 height="100%" />
              <use
                 x="63.623047"
                 xlink:href="#DejaVuSans-53"
                 id="use228"
                 y="0"
                 width="100%"
                 height="100%" />
            </g>
          </g>
        </g>
        <g
           id="ytick_5">
          <g
             id="line2d_11">
            <g
               id="g236">
              <use
                 style="stroke:#000000;stroke-width:0.8"
                 x="57.599998"
                 xlink:href="#m8c137b85a8"
                 y="152.07396"
                 id="use234"
                 width="100%"
                 height="100%" />
            </g>
          </g>
          <g
             id="text_12">
            <!-- 80 -->
            <g
               transform="matrix(0.1,0,0,-0.1,37.875,155.87317)"
               id="g243">
              <use
                 xlink:href="#DejaVuSans-56"
                 id="use239"
                 x="0"
                 y="0"
                 width="100%"
                 height="100%" />
              <use
                 x="63.623047"
                 xlink:href="#DejaVuSans-48"
                 id="use241"
                 y="0"
                 width="100%"
                 height="100%" />
            </g>
          </g>
        </g>
        <g
           id="ytick_6">
          <g
             id="line2d_12">
            <g
               id="g249">
              <use
                 style="stroke:#000000;stroke-width:0.8"
                 x="57.599998"
                 xlink:href="#m8c137b85a8"
                 y="118.83656"
                 id="use247"
                 width="100%"
                 height="100%" />
            </g>
          </g>
          <g
             id="text_13">
            <!-- 85 -->
            <g
               transform="matrix(0.1,0,0,-0.1,37.875,122.63578)"
               id="g256">
              <use
                 xlink:href="#DejaVuSans-56"
                 id="use252"
                 x="0"
                 y="0"
                 width="100%"
                 height="100%" />
              <use
                 x="63.623047"
                 xlink:href="#DejaVuSans-53"
                 id="use254"
                 y="0"
                 width="100%"
                 height="100%" />
            </g>
          </g>
        </g>
        <g
           id="ytick_7">
          <g
             id="line2d_13">
            <g
               id="g262">
              <use
                 style="stroke:#000000;stroke-width:0.8"
                 x="57.599998"
                 xlink:href="#m8c137b85a8"
                 y="85.599167"
                 id="use260"
                 width="100%"
                 height="100%" />
            </g>
          </g>
          <g
             id="text_14">
            <!-- 90 -->
            <g
               transform="matrix(0.1,0,0,-0.1,37.875,89.398385)"
               id="g269">
              <use
                 xlink:href="#DejaVuSans-57"
                 id="use265"
                 x="0"
                 y="0"
                 width="100%"
                 height="100%" />
              <use
                 x="63.623047"
                 xlink:href="#DejaVuSans-48"
                 id="use267"
                 y="0"
                 width="100%"
                 height="100%" />
            </g>
          </g>
        </g>
        <g
           id="ytick_8">
          <g
             id="line2d_14">
            <g
               id="g275">
              <use
                 style="stroke:#000000;stroke-width:0.8"
                 x="57.599998"
                 xlink:href="#m8c137b85a8"
                 y="52.361771"
                 id="use273"
                 width="100%"
                 height="100%" />
            </g>
          </g>
          <g
             id="text_15">
            <!-- 95 -->
            <g
               transform="matrix(0.1,0,0,-0.1,37.875,56.160991)"
               id="g282">
              <use
                 xlink:href="#DejaVuSans-57"
                 id="use278"
                 x="0"
                 y="0"
                 width="100%"
                 height="100%" />
              <use
                 x="63.623047"
                 xlink:href="#DejaVuSans-53"
                 id="use280"
                 y="0"
                 width="100%"
                 height="100%" />
            </g>
          </g>
        </g>
        <g
           id="text_16">
          <!-- y (m) -->
          <g
             transform="matrix(0,-0.1,-0.1,0,31.795313,187.84831)"
             id="g299">
            <defs
               id="defs287">
              <path
                 d="M 32.171875,-5.078125 Q 28.375,-14.84375 24.75,-17.8125 q -3.609375,-2.984375 -9.65625,-2.984375 h -7.1875 v 7.515625 h 5.28125 q 3.703125,0 5.75,1.765625 2.0625,1.75 4.546875,8.296875 L 25.09375,0.875 2.984375,54.6875 H 12.5 L 29.59375,11.921875 46.6875,54.6875 h 9.515625 z"
                 id="DejaVuSans-121" />
            </defs>
            <use
               xlink:href="#DejaVuSans-121"
               id="use289"
               x="0"
               y="0"
               width="100%"
               height="100%" />
            <use
               x="59.179688"
               xlink:href="#DejaVuSans-32"
               id="use291"
               y="0"
               width="100%"
               height="100%" />
            <use
               x="90.966797"
               xlink:href="#DejaVuSans-40"
               id="use293"
               y="0"
               width="100%"
               height="100%" />
            <use
               x="129.98047"
               xlink:href="#DejaVuSans-109"
               id="use295"
               y="0"
               width="100%"
               height="100%" />
            <use
               x="227.39258"
               xlink:href="#DejaVuSans-41"
               id="use297"
               y="0"
               width="100%"
               height="100%" />
          </g>
        </g>
        <g
           id="text_17">
          <!-- +5.6386e6 -->
          <g
             transform="matrix(0.1,0,0,-0.1,57.6,38.472)"
             id="g326">
            <defs
               id="defs306">
              <path
                 d="M 46,62.703125 V 35.5 H 73.1875 V 27.203125 H 46 V 0 H 37.796875 V 27.203125 H 10.59375 V 35.5 h 27.203125 v 27.203125 z"
                 id="DejaVuSans-43" />
              <path
                 d="M 10.6875,12.40625 H 21 V 0 H 10.6875 Z"
                 id="DejaVuSans-46" />
              <path
                 d="M 40.578125,39.3125 Q 47.65625,37.796875 51.625,33 q 3.984375,-4.78125 3.984375,-11.8125 0,-10.78125 -7.421875,-16.703125 -7.421875,-5.90625 -21.09375,-5.90625 -4.578125,0 -9.4375,0.90625 -4.859375,0.90625 -10.03125,2.71875 v 9.515625 q 4.09375,-2.390625 8.96875,-3.609375 4.890625,-1.21875 10.21875,-1.21875 9.265625,0 14.125,3.65625 4.859375,3.65625 4.859375,10.640625 0,6.453125 -4.515625,10.078125 -4.515625,3.640625 -12.5625,3.640625 h -8.5 v 8.109375 h 8.890625 q 7.265625,0 11.125,2.90625 3.859375,2.90625 3.859375,8.375 0,5.609375 -3.984375,8.609375 -3.96875,3.015625 -11.390625,3.015625 -4.0625,0 -8.703125,-0.890625 Q 15.375,64.15625 9.8125,62.3125 v 8.78125 q 5.625,1.5625 10.53125,2.34375 4.90625,0.78125 9.25,0.78125 11.234375,0 17.765625,-5.109375 6.546875,-5.09375 6.546875,-13.78125 0,-6.0625 -3.46875,-10.234375 -3.46875,-4.171875 -9.859375,-5.78125 z"
                 id="DejaVuSans-51" />
              <path
                 d="m 56.203125,29.59375 v -4.390625 h -41.3125 q 0.59375,-9.28125 5.59375,-14.140625 5,-4.859375 13.9375,-4.859375 5.171875,0 10.03125,1.265625 4.859375,1.265625 9.65625,3.8125 v -8.5 q -4.84375,-2.046875 -9.921875,-3.125 -5.078125,-1.078125 -10.296875,-1.078125 -13.09375,0 -20.734375,7.609375 -7.640625,7.625 -7.640625,20.625 0,13.421875 7.25,21.296875 Q 20.015625,56 32.328125,56 q 11.03125,0 17.453125,-7.109375 6.421875,-7.09375 6.421875,-19.296875 z m -8.984375,2.640625 q -0.09375,7.359375 -4.125,11.75 -4.03125,4.40625 -10.671875,4.40625 -7.515625,0 -12.03125,-4.25 -4.515625,-4.25 -5.203125,-11.96875 z"
                 id="DejaVuSans-101" />
            </defs>
            <use
               xlink:href="#DejaVuSans-43"
               id="use308"
               x="0"
               y="0"
               width="100%"
               height="100%" />
            <use
               x="83.789062"
               xlink:href="#DejaVuSans-53"
               id="use310"
               y="0"
               width="100%"
               height="100%" />
            <use
               x="147.41211"
               xlink:href="#DejaVuSans-46"
               id="use312"
               y="0"
               width="100%"
               height="100%" />
            <use
               x="179.19922"
               xlink:href="#DejaVuSans-54"
               id="use314"
               y="0"
               width="100%"
               height="100%" />
            <use
               x="242.82227"
               xlink:href="#DejaVuSans-51"
               id="use316"
               y="0"
               width="100%"
               height="100%" />
            <use
               x="306.44531"
               xlink:href="#DejaVuSans-56"
               id="use318"
               y="0"
               width="100%"
               height="100%" />
            <use
               x="370.06836"
               xlink:href="#DejaVuSans-54"
               id="use320"
               y="0"
               width="100%"
               height="100%" />
            <use
               x="433.69141"
               xlink:href="#DejaVuSans-101"
               id="use322"
               y="0"
               width="100%"
               height="100%" />
            <use
               x="495.21484"
               xlink:href="#DejaVuSans-54"
               id="use324"
               y="0"
               width="100%"
               height="100%" />
          </g>
        </g>
      </g>
      <g
         id="line2d_15">
        <path
           clip-path="url(#p952aa9a854)"
           d="m 388.57581,280.41163 -0.0781,0.003 0.0781,-0.003 -0.16069,-0.1195 -0.41421,-0.59802 -0.40414,-0.35417 -0.8233,-1.07783 -0.48719,-0.47672 -0.26295,-0.72981 -0.57443,-0.71754 -0.74985,-1.19914 -0.4145,-0.60541 -0.34059,-0.72675 -2.23558,-3.2427 -0.42381,-0.8419 -0.57938,-0.84317 -0.34105,-0.72673 -0.5749,-0.71753 -1.25159,-2.04537 -0.56978,-0.5993 -0.34105,-0.72673 -1.47584,-1.79229 -2.17667,-3.73352 -0.68705,-1.5791 -0.297,-1.59445 -0.26294,-0.72981 -0.40839,-2.44865 -0.18531,-0.73287 -0.11633,-0.97983 -0.26295,-0.72981 0.0485,-0.74207 -0.48678,-2.45297 -0.62774,-4.04616 -0.66685,-3.05281 -0.10673,-0.73596 -0.2679,-0.85544 -0.0291,-0.73901 -0.45321,-1.5883 -0.45244,-1.58094 -0.72063,-2.44376 -0.18996,-0.8511 -0.41403,-0.60544 -0.26295,-0.7298 -0.41869,-0.72368 -0.87655,-2.43022 -0.42363,-0.8493 -0.40926,-0.4724 -1.67523,-2.89468 -0.87684,-2.43761 -0.34058,-0.72675 -0.60865,-1.57478 -2.20606,-4.47992 -5.52293,-9.40463 -1.64165,-2.03001 -0.64293,-0.47059 -1.22249,-1.30636 -0.64294,-0.4706 -0.5749,-0.71752 -1.29099,-1.05941 -1.21288,-1.06248 -1.28558,-0.9338 -2.98612,-2.47299 -1.20329,-0.81861 -0.56529,-0.47364 -1.27598,-0.68993 -2.41588,-1.8737 -3.47331,-2.94971 -0.49184,-0.59497 -2.49428,-1.87802 -0.56948,-0.59191 -1.28139,-0.81553 -0.49185,-0.59497 -0.79419,-0.33881 -1.29053,-1.05943 -0.79419,-0.33881 -0.57025,-0.59928 -1.28062,-0.80817 -2.72318,-1.74318 -0.7942,-0.33881 -6.4348,-4.80933 -2.01174,-1.51954 -1.84127,-1.16357 -2.14333,-0.90003 -0.64788,-0.59623 -1.35454,-0.68682 -0.49185,-0.59497 -0.64293,-0.47059 -0.49185,-0.59497 -6.13292,-5.06548 -1.29518,-1.17767 -1.36443,-0.9381 -2.99031,-2.59125 -4.72983,-5.12072 -0.98864,-1.31557 -0.40908,-0.4798 -0.41916,-0.72366 -0.49184,-0.59497 -0.33593,-0.60851 -2.60118,-2.60657 -0.33592,-0.60851 -0.56035,-0.34801 -0.97903,-1.0717 -0.56035,-0.34802 -2.02582,-1.88906 -1.28138,-0.81554 -0.56035,-0.34802 -0.49185,-0.59496 -0.63798,-0.34497 -2.51842,-2.4914 -0.55988,-0.34804 -2.51841,-2.49141 -6.97989,-6.75671 -1.52978,-1.17583 -0.40908,-0.47981 -6.74645,-4.78967 -4.4769,-2.65856 -5.02253,-2.64447 -3.16129,-0.98578 -0.71609,-0.34188 -0.62856,-0.0937 -1.18873,-0.44911 -4.74474,-1.53777 -0.63799,-0.34496 -1.50068,-0.43682 -0.71609,-0.34189 -0.86223,-0.0919 -4.81324,-1.29082 -0.78384,-0.0876 -1.65642,-0.43069 -0.8723,-0.33574 -0.77918,0.0307 -0.79419,-0.33881 -3.94094,-0.95509 -0.71609,-0.34189 -0.77965,0.0307 -0.71609,-0.34189 -0.85728,0.0337 -2.44073,-0.51824 -1.64682,-0.18682 -0.78925,-0.21318 -0.86223,-0.0919 -0.85729,0.0337 -1.56889,-0.18248 -0.85234,0.15938 -0.70649,-0.098 -1.48119,0.0583 -0.78412,-0.095 -0.54085,0.14713 -1.10074,-0.20092 -1.16923,0.046 -0.54115,0.13973 -1.50039,-0.42944 -1.33487,-0.1991 -5.06629,-1.76937 -1.41297,-0.19602 -0.63304,-0.21933 -0.77965,0.0307 -1.41268,-0.18864 -3.08366,-0.988834 -1.56872,-0.189895 -1.79267,0.07058 -0.94499,-0.20705 -1.09654,-0.08266 -3.46336,-0.722237 -1.02804,-0.329607 -1.10102,-0.208308 -6.10418,-0.374019 -1.09113,0.04296 -4.15576,-0.450726 -2.35796,-0.403078 -1.33458,-0.191713 -1.18379,-0.323476 -1.25228,-0.07653 -1.10073,-0.200918 -1.09608,-0.08268 -2.18273,0.08593 -2.42618,-0.148738 -1.10102,-0.208309 -2.45033,-0.762121 -1.18378,-0.323477 -1.17913,-0.205235 -2.26997,-0.154888 -1.17883,-0.197845 -0.95488,-0.458315 -1.0231,-0.203976 -1.11062,-0.452184 -1.10073,-0.20092 -0.94994,-0.332683 -1.09654,-0.08266 -1.01303,0.03988 -3.22037,-0.487555 -1.09608,-0.08268 -1.02804,-0.329608 -2.4356,-0.400024 -9.24601,-2.840902 -4.06268,-2.060543 -0.88684,-0.705248 -1.997,-1.157451 -3.10285,-1.476595 -0.95983,-0.583949 -1.0327,-0.447852 -2.002408,-1.283066 -1.037173,-0.573502 -0.813684,-0.833955 -0.886376,-0.705266 -0.813394,-0.826565 -1.748644,-2.773376 -0.579547,-0.83577 -2.998411,-3.190478 v 0"
           style="fill:none;stroke:#1f77b4;stroke-width:1.5;stroke-dasharray:1.5, 2.475;stroke-dashoffset:0"
           id="path330" />
      </g>
      <g
         id="line2d_16">
        <path
           clip-path="url(#p952aa9a854)"
           d="m 388.74116,280.64937 0.0831,0.12256 -0.16069,-0.1195 -1.32009,-1.79842 -1.7289,-2.27084 -0.33639,-0.60848 -0.4869,-0.46934 -1.66068,-2.52517 -1.82679,-2.77029 -0.66708,-1.08397 -0.91549,-1.44428 -1.81194,-2.39338 -0.42363,-0.84931 -0.91596,-1.44426 -2.76612,-4.82055 -0.25335,-0.48593 -1.72847,-4.24708 -1.17313,-6.00092 -0.1459,-1.71882 -0.53509,-3.67974 -0.69129,-3.67358 -0.35048,-0.97801 -0.4628,-1.83218 -3.1401,-10.35703 -0.74519,-1.0809 -1.96262,-4.24526 -0.52589,-1.45961 -0.67715,-1.32783 -3.03896,-5.80163 -1.08083,-1.68202 -1.91449,-3.01108 -0.91053,-1.31865 -0.90094,-1.07476 -2.29913,-2.87012 -0.65253,-0.71446 -0.57985,-0.84316 -3.50241,-3.68873 -0.80828,-0.70833 -0.65766,-0.83269 -0.80362,-0.5901 -1.38365,-1.42584 -1.12983,-0.93992 -1.13478,-1.06556 -1.60294,-1.04713 -5.21204,-3.49559 -3.7749,-2.68618 -3.31263,-2.83021 -5.06123,-3.62735 -0.4773,-0.22546 -2.16777,-1.5208 -0.4773,-0.22546 -1.28587,-0.94119 -0.95459,-0.45092 -0.88685,-0.70524 -0.87678,-0.46138 -2.09927,-1.76775 -2.97157,-2.10348 -2.72317,-1.74318 -2.49846,-1.99629 -3.6926,-2.571 -4.6667,-3.51706 -5.74286,-5.08084 -0.74024,-0.95527 -1.53939,-1.41971 -1.39277,-1.66973 -0.57985,-0.84316 -0.81322,-0.83397 -0.57955,-0.83577 -4.16453,-4.64707 -0.73064,-0.7114 -0.80409,-0.59007 -1.21289,-1.06249 -1.12983,-0.93993 -0.95954,-0.57655 -0.80874,-0.70832 -0.88173,-0.58702 -2.85899,-3.21816 -0.65766,-0.83269 -0.96449,-0.70219 -6.97523,-6.63847 -0.88143,-0.57963 -0.80874,-0.70831 -2.65001,-1.8719 -1.69018,-1.28795 -3.60954,-2.44844 -0.96449,-0.70219 -0.95488,-0.45831 -0.96449,-0.70219 -0.95459,-0.45092 -0.95983,-0.58395 -0.94994,-0.33268 -0.95954,-0.57655 -0.94993,-0.33268 -0.945,-0.20705 -1.98787,-0.91355 -0.79838,-0.45707 -8.65663,-3.73007 -0.94994,-0.33268 -0.95488,-0.45831 -0.94499,-0.20705 -0.87678,-0.46139 -1.02804,-0.3296 -1.0231,-0.20397 -2.92279,-0.87675 -4.22846,-0.32203 -2.12412,-0.41228 -7.12756,-0.58537 -1.0231,-0.20398 -1.01302,0.0399 -1.0231,-0.20398 -1.01844,-0.0857 -1.09113,0.043 -0.94033,-0.0888 -1.0135,0.0399 -1.10073,-0.20092 -0.93539,0.0368 -0.94034,-0.0888 -1.01349,0.0399 -0.86194,-0.0845 -2.60636,-0.76338 -0.94994,-0.33268 -2.12411,-0.41228 -1.02805,-0.32961 -0.95459,-0.45092 -6.0796,-1.73688 -2.20223,-0.40921 -1.02757,-0.329623 -5.63648,-0.39243 -2.35797,-0.403077 -1.16923,0.04603 -6.57682,-0.481239 -2.27538,-0.280501 -1.01768,-0.07836 -1.16924,0.04603 -4.22874,-0.329428 -1.0231,-0.203975 -1.09113,0.04296 -1.17418,-0.0796 -2.04153,-0.289708 -1.09608,-0.08268 -1.02804,-0.329608 -1.10073,-0.200919 -1.09608,-0.08268 -3.30295,-0.610129 -1.09626,-0.07527 -1.18378,-0.323476 -1.01797,-0.08575 -1.10615,-0.326533 -1.03252,-0.455259 -0.94499,-0.207051 -1.03764,-0.573483 -1.17913,-0.205235 -0.95459,-0.450925 -3.08365,-0.988843 -2.11452,-0.168411 -1.09113,0.04296 -1.96808,-0.411027 -2.12412,-0.412286 -1.09607,-0.08268 -9.71866,-2.948122 -1.01814,-0.07834 -2.13372,-0.656162 -1.10102,-0.20831 -3.96061,-1.442828 -0.88637,-0.705266 -1.75868,-1.041007 -0.95982,-0.583948 -1.53396,-1.294106 -0.803796,-0.58269 -2.927481,-2.971221 -1.397709,-1.795377 -1.695115,-1.413588 -0.877243,-0.461373 -0.812925,-0.826584 -0.882189,-0.587005 -3.078276,-2.839459 -0.491841,-0.59497 0.07811,-0.0031"
           style="fill:none;stroke:#ff7f0e;stroke-width:1.5;stroke-dasharray:1.5, 2.475;stroke-dashoffset:0"
           id="path333" />
      </g>
      <g
         id="line2d_17">
        <path
           clip-path="url(#p952aa9a854)"
           d="m 388.28335,280.91905 -0.073,0.1213 0.15109,-0.12437 -0.15574,0.006 -3.06383,-4.44615 -0.40909,-0.4798 -0.258,-0.60418 -0.48719,-0.47672 -0.34105,-0.72673 -0.41374,-0.59804 -0.48225,-0.3511 -0.34105,-0.72673 -0.90094,-1.07476 -1.83638,-3.01416 -0.74985,-1.19915 -2.51308,-4.34201 -0.41403,-0.60543 -1.27109,-2.54051 -1.34919,-2.53744 -1.03723,-2.54972 -0.44285,-1.33706 -0.258,-0.60417 -0.1072,-0.73594 -0.25334,-0.48593 -0.28245,-1.22495 -0.56954,-2.56813 -0.34034,-2.69559 -0.3357,-2.57734 0.0537,-0.62385 -0.0973,-0.48467 -0.18914,-4.8036 -0.2775,-1.09931 -0.73988,-4.90774 -0.2484,-0.3603 -0.37928,-1.70964 -1.76323,-3.14287 -0.8329,-1.3217 -0.17029,-0.36337 -0.3265,-0.35722 -0.51134,-1.09011 -0.2484,-0.3603 -0.42829,-0.96755 -1.18879,-2.42533 -1.38742,-3.52034 -2.21119,-4.59815 -0.83272,-1.32911 -1.65125,-2.27389 -0.97904,-1.07169 -0.90588,-1.2004 -0.90093,-1.07477 -0.41916,-0.72366 -2.10422,-1.89337 -4.39345,-4.51223 -0.56529,-0.47365 -0.57443,-0.71754 -1.6175,-1.41664 -3.16107,-2.9546 -0.56483,-0.47367 -0.49184,-0.59496 -1.12565,-0.82167 -0.40909,-0.4798 -0.63798,-0.34496 -0.49185,-0.59497 -0.56035,-0.34802 -0.63304,-0.21932 -3.37105,-2.33941 -1.12536,-0.81428 -2.82031,-2.23526 -1.76363,-1.16663 -2.57162,-1.86757 -0.63333,-0.22672 -6.74647,-4.78966 -0.71609,-0.34189 -6.02573,-4.32954 -0.71609,-0.34188 -0.565,-0.46626 -3.19582,-1.8504 -0.56482,-0.47367 -1.35455,-0.68683 -0.80333,-0.5827 -0.8723,-0.33574 -0.88638,-0.70526 -0.87679,-0.46139 -1.52483,-1.0502 -0.49185,-0.59497 -1.21288,-1.06248 -3.00066,-2.8425 -0.56949,-0.59191 -1.36909,-1.05634 -0.63799,-0.34496 -1.29099,-1.05941 -0.64293,-0.47059 -0.98864,-1.31557 -1.47582,-1.7923 -0.50174,-0.84623 -0.64759,-0.58883 -2.05072,-2.50982 -1.29099,-1.05942 -2.41616,-1.88109 -0.49679,-0.7206 -0.56483,-0.47367 -0.49679,-0.7206 -0.64806,-0.58882 -0.57443,-0.71755 -0.63845,-0.34494 -1.28557,-0.9338 -1.13059,-0.9473 -0.49679,-0.7206 -0.56949,-0.59191 -0.57984,-0.84316 -1.94817,-1.89212 -0.65748,-0.8401 -1.29594,-1.18505 -0.64758,-0.58883 -0.4241,-0.84929 -0.49679,-0.7206 -0.42335,-0.84192 -1.21782,-1.18812 -1.71462,-1.90872 -0.57955,-0.83577 -1.37357,-1.18199 -0.71609,-0.34188 -1.36368,-0.93073 -1.52978,-1.17583 -0.7942,-0.33881 -2.40161,-1.5116 -4.16448,-2.67085 -0.78925,-0.21318 -0.87678,-0.46139 -1.74413,-0.67149 -3.99419,-2.30748 -1.27178,-0.57166 -0.86688,-0.21012 -0.87725,-0.46137 -1.26608,-0.43866 -3.79975,-1.33072 -3.55135,-0.97042 -1.73947,-0.55325 -0.86194,-0.0845 -2.83527,-0.62853 -2.66497,-0.26516 -1.74908,-0.79712 -2.61596,-1.00725 -4.24795,-0.81717 -0.86223,-0.0919 -0.86688,-0.21013 -0.94034,-0.0888 -1.80769,-0.29892 -1.88038,-0.17022 -0.94993,-0.33268 -1.80257,-0.18069 -1.81682,-0.5428 -1.80769,-0.29891 -0.86688,-0.21013 -4.38944,-0.44892 -1.10614,-0.32653 -1.09113,0.043 -1.96809,-0.41103 -3.13714,-0.3724 -4.78415,-0.55181 -0.86688,-0.21012 -2.03688,-0.17147 -2.98606,-0.496772 -1.01844,-0.08573 -2.12383,-0.404893 -9.08092,-0.634309 -2.02652,0.07978 -0.84786,0.285033 -1.95831,-0.174559 -0.8723,-0.335738 -1.09113,0.04296 -1.10073,-0.200919 -1.40803,-0.0704 -4.33099,-0.939736 -5.41718,-0.771147 -2.60142,-0.637748 -1.33458,-0.191713 -1.26188,-0.320401 -1.33487,-0.199104 -2.60142,-0.637747 -2.73813,-0.136459 -1.33952,-0.317346 -1.32993,-0.07347 -6.30897,-1.60203 -3.71669,-1.208176 -1.26188,-0.320402 -1.25648,-0.194789 -2.44101,-0.525638 -1.33458,-0.191714 -1.18378,-0.323478 -2.59181,-0.393874 -1.10615,-0.326535 -2.37716,-0.89083 -1.10568,-0.326553 -2.07976,-1.272618 -2.00707,-1.401308 -1.04753,-0.824749 -0.81322,-0.833973 -3.049648,-2.100425 -1.037173,-0.573502 -1.047532,-0.824749 -1.03764,-0.573485 -1.938562,-1.648257 -1.714606,-1.908729 -0.740235,-0.955272 -0.511332,-1.09011 -0.667075,-1.08398 -0.511333,-1.09011 -1.529771,-1.175845 v 0"
           style="fill:none;stroke:#2ca02c;stroke-width:1.5;stroke-dasharray:1.5, 2.475;stroke-dashoffset:0"
           id="path336" />
      </g>
      <g
         id="line2d_18">
        <path
           clip-path="url(#p952aa9a854)"
           d="m 387.19758,279.1114 -0.005,-0.12563 -0.0781,0.003 -0.24345,-0.23467 -0.75014,-1.20653 -0.92043,-1.56991 -1.71929,-2.02695 -0.56995,-0.5919 -4.23265,-6.37635 -1.2612,-2.28925 -0.42363,-0.84931 -0.91596,-1.44425 -1.26148,-2.29664 -1.90413,-2.75984 -0.94458,-2.18329 -0.55499,-2.19863 -1.62133,-5.48736 -0.47735,-2.20169 -0.29699,-1.59445 -0.29205,-1.46882 -0.53013,-3.5541 -0.26295,-0.72981 -0.29204,-1.46882 -0.6331,-2.19555 -1.57768,-4.37884 -0.36968,-1.46577 -0.34105,-0.72673 -0.6331,-2.19555 -0.59858,-1.33093 -0.18065,-0.61462 -0.49185,-0.59497 -0.51134,-1.0901 -0.2871,-1.34319 -0.25829,-0.61157 -0.2871,-1.34318 -1.33423,-4.14418 -0.41374,-0.59804 -0.26789,-0.85544 -1.17843,-2.17408 -0.26294,-0.72981 -1.15446,-1.55329 -1.09072,-1.93328 -1.35879,-2.78131 -0.65254,-0.71447 -1.15474,-1.56068 -2.77596,-3.0956 -3.00067,-2.84249 -1.45663,-1.30454 -0.73064,-0.71139 -8.92385,-6.55433 -1.52979,-1.17584 -2.48886,-1.7524 -9.47925,-6.77672 -0.95983,-0.58395 -1.60713,-1.16538 -2.79662,-1.62187 -0.9546,-0.45092 -1.83632,-1.03794 -0.95489,-0.45831 -4.33059,-2.91596 -3.38036,-2.57589 -0.73064,-0.71139 -12.33359,-9.87664 -0.73558,-0.83703 -0.57985,-0.84316 -1.38783,-1.5441 -1.69513,-1.41358 -0.65748,-0.8401 -1.53938,-1.41971 -1.47583,-1.7923 -2.3526,-2.25368 -8.86498,-9.02139 -0.65748,-0.8401 -2.35773,-2.37191 -1.61236,-1.29841 -2.41587,-1.87371 -0.80874,-0.70832 -0.79868,-0.46446 -4.58858,-3.52014 -0.8819,-0.57962 -0.73064,-0.71139 -0.80362,-0.5901 -0.653,-0.71444 -0.80333,-0.58271 -1.45633,-1.29715 -2.48932,-1.7524 -2.48932,-1.75239 -4.46217,-2.29646 -0.78925,-0.21317 -1.82672,-0.79407 -0.94993,-0.33268 -0.94499,-0.20705 -0.87678,-0.46139 -1.0231,-0.20397 -1.66602,-0.67457 -1.10074,-0.20091 -2.61131,-0.88901 -0.94499,-0.20705 -1.75373,-0.91537 -0.94994,-0.33268 -0.95488,-0.45831 -0.86689,-0.21012 -1.82718,-0.79405 -1.89987,-0.66536 -0.94499,-0.20705 -1.81712,-0.5502 -1.96343,-0.29278 -4.69614,-0.30361 -0.93539,0.0368 -0.94529,-0.21444 -2.03612,-0.16409 -0.94499,-0.20704 -1.67097,-0.80021 -1.02309,-0.20397 -1.02758,-0.32962 -1.01844,-0.0857 -1.89027,-0.42149 -4.7792,-0.42618 -0.86223,-0.0919 -2.91337,-0.62546 -1.01768,-0.0784 -0.94528,-0.21444 -2.19233,-0.15795 -1.0231,-0.20397 -1.09607,-0.0827 -1.02804,-0.32961 -2.19187,-0.15796 -2.20222,-0.40921 -4.3115,-0.44459 -4.47714,-0.689729 -1.17418,-0.0796 -1.18379,-0.323476 -2.19186,-0.157961 -3.29801,-0.484495 -1.09654,-0.08266 -1.09114,0.04296 -2.20222,-0.409209 -1.09578,-0.07529 -6.53276,-1.348963 -2.03658,-0.164075 -1.01303,0.03988 -1.10149,-0.208291 -1.01303,0.03988 -1.09625,-0.07527 -1.09113,0.04296 -1.01844,-0.08573 -2.26037,0.08899 -3.14721,-0.61626 -2.11917,-0.286653 -15.18932,-3.102831 -4.89629,-1.413393 -1.96762,-0.411046 -0.87229,-0.33574 -2.12412,-0.412286 -2.84981,-0.998051 -1.89026,-0.421493 -0.87183,-0.335759 -0.86689,-0.210126 -2.02161,-1.770815 -0.56995,-0.591896 -0.99357,-1.441205 -1.60698,-3.149032 -2.2306,-3.117081 -1.144837,-1.309424 -0.647874,-0.59623 -1.149316,-1.435075 -1.441775,-0.927654 -0.872297,-0.335741 -1.441775,-0.927655 -0.940334,-0.08881 -0.793725,-0.338834 -1.817285,-0.542792 -0.949935,-0.332685 -2.04601,-0.415363 v 0"
           style="fill:none;stroke:#d62728;stroke-width:1.5;stroke-dasharray:1.5, 2.475;stroke-dashoffset:0"
           id="path339" />
      </g>
      <g
         id="line2d_19">
        <path
           clip-path="url(#p952aa9a854)"
           d="m 391.48555,273.02128 -0.0776,0.003 v 0 l -0.89675,-0.95651 -0.65719,-0.8327 -1.06705,-1.31988 -0.40879,-0.47241 -0.3364,-0.60849 -0.4869,-0.46934 -0.41869,-0.72367 -0.57025,-0.59928 -0.41869,-0.72368 -0.5749,-0.71752 -1.33417,-2.16795 -3.23383,-4.80213 -0.90099,-3.051 -1.08518,-7.72895 -0.97368,-2.9223 -0.61855,-1.82605 -0.34553,-0.85238 -1.43648,-4.75448 -3.3789,-10.47346 -0.69171,-1.69733 -1.42641,-4.51063 -0.42411,-0.84929 -0.27255,-0.97368 -0.49679,-0.7206 -0.34553,-0.85238 -1.84598,-3.25804 -0.42335,-0.84191 -0.49679,-0.7206 -0.42411,-0.84929 -0.57938,-0.84318 -5.58578,-11.00089 -0.99359,-1.4412 -0.4241,-0.84929 -1.87037,-1.90258 -1.87008,-1.8952 -3.54647,-2.821 -0.72104,-0.46752 -0.79373,-0.33882 -2.23598,-1.26646 -0.57025,-0.59928 -1.36368,-0.93072 -1.93858,-1.64824 -1.21288,-1.06249 -5.12439,-5.23101 -1.62168,-1.53489 -1.83679,-1.03792 -0.72598,-0.59315 -1.43218,-0.68377 -6.24474,-3.94343 -0.79373,-0.33883 -1.36444,-0.9381 -1.35408,-0.68684 -5.85048,-3.84053 -3.61916,-2.69232 -0.56948,-0.59191 -1.28139,-0.81553 -1.85087,-1.40745 -0.71609,-0.34189 -1.77323,-1.4105 -0.64759,-0.58884 -0.63846,-0.34494 -1.29546,-1.18506 -0.63351,-0.21931 -0.64293,-0.47059 -0.81369,-0.83395 -0.63304,-0.21933 -0.97409,-0.94606 -1.35408,-0.68685 -0.6434,-0.47057 -0.49185,-0.59497 -0.56482,-0.47367 -0.49185,-0.59497 -1.13059,-0.9473 -1.06133,-1.18688 -2.12417,-2.3885 -0.82283,-1.07784 -0.56995,-0.5919 -0.75013,-1.20653 -0.90559,-1.19301 -1.79767,-2.03128 -4.54918,-4.5061 -5.77707,-5.93808 -4.60313,-3.88965 -1.28092,-0.81555 -2.65466,-1.99014 -0.57024,-0.59928 -0.71609,-0.34189 -1.21754,-1.18073 -4.81777,-3.39269 -1.12023,-0.69605 -1.37375,-1.17458 -3.37104,-2.33941 -2.31856,-1.38904 -2.46488,-1.13162 -0.64293,-0.4706 -0.71609,-0.34188 -2.87891,-1.73706 -0.79419,-0.33881 -0.56483,-0.47367 -6.57657,-2.45006 -0.70649,-0.098 -0.79373,-0.33883 -5.60743,-1.62963 -1.66108,-0.54894 -2.52331,-0.64081 -1.65148,-0.30507 -4.0925,-0.83069 -0.7062,-0.0906 -1.49526,-0.31121 -0.70649,-0.098 -1.65643,-0.430697 -0.7843,-0.08755 -0.78954,-0.220571 -2.58686,-0.268234 -1.73378,-0.420248 -0.94033,-0.08881 -1.73453,-0.427619 -0.86194,-0.08449 -0.86764,-0.217495 -0.93539,0.03683 -0.86689,-0.210124 -4.3115,-0.44459 -0.85728,0.03375 -1.80722,-0.29893 -0.94034,-0.08881 -0.8723,-0.335738 -0.86223,-0.09188 -0.86688,-0.210124 -0.94034,-0.08881 -1.73424,-0.42023 -1.80722,-0.298931 -0.79419,-0.338813 -0.94033,-0.08881 -1.73453,-0.42762 -0.87183,-0.335756 -1.80228,-0.173299 -0.94499,-0.20705 -1.88067,-0.177614 -1.80769,-0.298913 -3.83373,-0.219149 -1.87078,0.07365 -0.93044,0.162458 -0.94034,-0.08881 -0.8528,0.159401 -1.01798,-0.08575 -1.01349,0.0399 -4.62299,-0.432332 -0.86735,-0.210106 -1.88067,-0.177615 -0.86688,-0.210125 -1.95849,-0.16715 -0.78907,-0.22059 -0.8624,-0.08447 -2.7525,-0.513373 -0.86194,-0.08449 -0.94528,-0.21444 -1.7978,-0.04765 -1.02757,-0.329626 -0.93539,0.03682 -5.51972,-1.388846 -0.85729,0.03375 -1.89027,-0.421491 -0.94993,-0.332683 -0.93539,0.03682 -0.94004,-0.08142 -1.73453,-0.427622 -0.94034,-0.08881 -0.86688,-0.210125 -1.01844,-0.08573 -1.73424,-0.420232 -2.6645,-0.265185 -0.86764,-0.217497 -0.94005,-0.08142 -4.49168,-1.059241 -0.87677,-0.46139 -0.78925,-0.213183 -0.79867,-0.464465 -2.38211,-1.016463 -2.47942,-1.501137 -5.5974,-3.362021 -4.1886,-3.284252 -0.80409,-0.59008 -0.73063,-0.711397 -2.3331,-1.758553 -0.652996,-0.714453 -0.798379,-0.457076 -0.574892,-0.717528 -0.804084,-0.590081 -1.222474,-1.306367 -0.501732,-0.846236 -0.350178,-0.970627 v 0"
           style="fill:none;stroke:#9467bd;stroke-width:1.5;stroke-dasharray:1.5, 2.475;stroke-dashoffset:0"
           id="path342" />
      </g>
      <g
         id="line2d_20">
        <path
           clip-path="url(#p952aa9a854)"
           d="m 381.32115,282.54768 0.0831,0.12256 0.17495,0.48161 0.0734,-0.12131 0.40879,0.47241 0.5944,1.21266 -0.15079,0.13176 0.53078,-0.39098 -0.32138,-0.239 0.15574,-0.006 -0.56995,-0.59189 -0.47264,-0.10722 -0.81294,-0.82657 -0.5749,-0.71753 -1.39308,-1.67712 -0.40926,-0.47239 -0.25335,-0.48593 -0.98864,-1.31557 -1.31962,-1.79844 -0.32651,-0.35722 -0.17524,-0.48901 -0.99853,-1.56683 -0.58451,-0.9614 -0.91548,-1.44428 -0.5845,-0.96139 -0.24375,-0.24206 -0.77429,-1.81991 -0.24345,-0.23467 -0.10225,-0.61031 -0.2484,-0.3603 -0.35514,-1.09625 -0.42905,-0.97493 -0.61808,-1.82606 -0.0973,-0.48467 -0.346,-0.85237 -0.0971,-0.49208 -0.8329,-1.3217 -0.17029,-0.36337 -0.10226,-0.61031 -0.58479,-0.96879 -0.61313,-1.70043 -0.71615,-2.31811 -0.10179,-0.61033 -0.25335,-0.48593 -0.27749,-1.09931 -0.4628,-1.83218 -0.0969,-0.48469 -0.33639,-0.60849 -0.0241,-0.61339 -0.25335,-0.48593 -0.49609,-2.68945 -0.1267,-1.23108 -0.22849,-1.8414 0.0535,-0.61644 -0.84167,-5.51806 -0.28245,-1.22495 -0.28709,-1.34319 -0.43819,-1.21881 -0.51629,-1.21574 -0.10226,-0.61031 -0.3361,-0.6011 -0.61808,-1.82606 -0.25829,-0.61157 -0.0242,-0.61338 -0.43865,-1.2188 -0.46699,-1.95044 -0.3364,-0.60848 -0.55004,-2.073 -0.25335,-0.48593 -0.17989,-0.60725 -0.33611,-0.6011 -0.43818,-1.21882 -4.19324,-7.36232 -1.49038,-2.1618 -0.40461,-0.35415 -0.66214,-0.95834 -3.51696,-4.05823 -1.62168,-1.5349 -3.00067,-2.84249 -2.34301,-2.0098 -2.69874,-1.12241 -2.13372,-0.65615 -2.14363,-0.90741 -1.92897,-1.40437 -3.99421,-2.30747 -1.77323,-1.4105 -1.84593,-1.28182 -3.8533,-2.6905 -1.92403,-1.27873 -0.89133,-0.8309 -0.8819,-0.57961 -0.81322,-0.83397 -0.88191,-0.57961 -0.96943,-0.82781 -5.61123,-3.72413 -1.77323,-1.4105 -1.85087,-1.40745 -3.31757,-2.95585 -0.81293,-0.82657 -0.80409,-0.59008 -0.8134,-0.82656 -0.88173,-0.58702 -0.80874,-0.70832 -0.95954,-0.57655 -0.88639,-0.70526 -0.74024,-0.95527 -0.80409,-0.59008 -2.35231,-2.24629 -0.73559,-0.83702 -0.8038,-0.58269 -0.73064,-0.71139 -2.41616,-1.8811 -4.38878,-4.39399 -3.37034,-4.30827 -0.80875,-0.70831 -1.31961,-1.79845 -2.20647,-2.50369 -0.80874,-0.70831 -1.46594,-1.54103 -1.54433,-1.54535 -0.88143,-0.57963 -4.28652,-3.78369 -0.65766,-0.83269 -4.63222,-4.62866 -0.80828,-0.70834 -1.38364,-1.42584 -0.95488,-0.45832 -0.65254,-0.71446 -4.85194,-2.27371 -1.66603,-0.67457 -1.59287,-0.80327 -3.0982,-1.35834 -0.86689,-0.21013 -7.06406,-2.93417 -1.42723,-0.55815 -0.71609,-0.34188 -0.71115,-0.21626 -1.51971,-0.93198 -0.78924,-0.21318 -0.71609,-0.34189 -0.70649,-0.098 -1.50534,-0.55507 -0.78878,-0.21319 -2.30448,-1.01952 -4.98353,-1.65419 -1.72912,-0.30201 -0.86764,-0.21749 -0.79373,-0.33883 -3.15187,-0.7345 -3.31285,-0.86139 -2.20193,-0.40181 -1.09608,-0.0827 -1.10568,-0.32655 -4.16566,-0.70198 -2.26996,-0.15489 -1.10074,-0.20092 -1.10614,-0.32653 -2.20176,-0.40922 -3.47371,-0.97348 -2.35797,-0.40308 -1.32963,-0.0661 -1.10103,-0.20831 -1.17389,-0.0722 -2.12412,-0.41228 -3.35196,0.13197 -12.91979,-0.97169 -1.02804,-0.3296 -1.17419,-0.0796 -4.40368,-0.81104 -1.09608,-0.0827 -1.1012,-0.2009 -5.64143,-0.51806 -1.25647,-0.19479 -1.16924,0.046 -1.25723,-0.20216 -1.16429,0.17166 -1.26189,-0.3204 -1.16924,0.046 -1.17883,-0.19784 -1.16924,0.046 -1.18873,-0.44911 -2.35796,-0.40308 -2.21136,-0.6531 -2.11423,-0.16102 -1.15963,0.2899 -1.0231,-0.20397 -1.16923,0.046 -1.0231,-0.20398 -1.09113,0.0429 -2.18767,-0.0397 -3.87244,-1.202043 -2.05142,-0.540975 -1.10568,-0.326552 -3.02475,-1.479669 -0.95983,-0.583949 -1.17389,-0.07221 -1.02804,-0.329609 -1.09113,0.04295 -1.10614,-0.326534 -2.06551,-0.910501 -1.10567,-0.326553 -1.1108,-0.444776 -1.17913,-0.205236 -1.02757,-0.329628 -1.17884,-0.197845 -1.10615,-0.326535 -3.49273,-1.468649 -1.276433,-0.68991 -1.110332,-0.444796 -2.313897,-1.270803 -4.413324,-3.031155 -8.762658,-8.411137 v 0"
           style="fill:none;stroke:#8c564b;stroke-width:1.5;stroke-dasharray:1.5, 2.475;stroke-dashoffset:0"
           id="path345" />
      </g>
      <g
         id="line2d_21">
        <path
           clip-path="url(#p952aa9a854)"
           d="m 398.48727,268.42305 -0.40461,-0.35414 -0.01,-0.24388 -0.48719,-0.47672 -1.31963,-1.79844 -0.98864,-1.31557 -2.90314,-4.32665 -1.93817,-3.62449 -1.69473,-3.38981 -0.8425,-1.56558 -0.0976,-0.49206 -0.33564,-0.60112 -0.4337,-1.09316 -0.76469,-1.57604 -0.33098,-0.48287 -1.62669,-3.63676 -0.26295,-0.7298 -0.2484,-0.3603 -0.5941,-1.20528 -0.48719,-0.47672 -0.75974,-1.45041 -0.4187,-0.72367 -0.26294,-0.72981 -0.56996,-0.59189 -0.34553,-0.85238 -0.83784,-1.44733 -0.68659,-1.57911 -1.17889,-2.17407 -0.34059,-0.72675 -0.8329,-1.32169 -1.44137,-2.90389 -0.33611,-0.6011 -0.76963,-1.70167 -2.54683,-5.19927 -0.33639,-0.60849 -0.53055,-1.57786 -0.34064,-2.70297 -1.62133,-5.48736 -0.34553,-0.85239 -0.41915,-0.72365 -0.26295,-0.72981 -0.50145,-0.83884 -0.26789,-0.85544 -0.41374,-0.59804 -0.346,-0.85237 -0.56949,-0.59191 -1.23733,-1.68325 -2.11428,-2.13723 -2.04532,-2.38421 -2.35774,-2.3719 -7.01932,-5.77073 -2.18698,-2.00854 -3.05415,-2.22605 -0.73064,-0.7114 -0.79915,-0.46444 -0.73064,-0.71139 -3.13692,-2.34122 -1.61207,-1.29102 -2.41123,-1.75546 -2.19192,-2.13418 -1.54928,-1.67098 -0.65253,-0.71446 -1.53444,-1.29408 -1.38318,-1.42586 -3.13226,-2.22298 -1.68058,-1.04407 -4.3885,-4.3866 -0.73558,-0.83702 -2.56697,-1.74934 -0.79914,-0.46444 -0.88638,-0.70526 -1.31514,-1.67279 -1.62197,-1.54229 -1.47088,-1.66666 -1.98223,-2.75677 -0.65794,-0.84008 -0.58898,-1.08705 -0.73064,-0.71139 -0.66261,-0.95833 -2.21141,-2.62932 -0.74024,-0.95526 -0.66708,-1.08398 -2.87355,-3.58766 -4.82743,-5.61279 -1.39773,-1.79537 -0.80874,-0.70832 -0.65719,-0.83271 -3.1468,-2.59249 -1.31048,-1.55455 -1.53892,-1.41973 -0.88685,-0.70524 -0.81293,-0.82658 -4.0191,-2.92823 -2.54746,-1.25419 -0.87183,-0.33576 -3.42471,-1.71556 -1.82672,-0.79407 -1.67097,-0.80019 -4.2916,-1.92569 -0.8723,-0.33574 -3.66303,-1.832 -4.05775,-1.9349 -1.02804,-0.3296 -0.95488,-0.45832 -1.02805,-0.3296 -0.87648,-0.454 -1.02339,-0.21136 -0.87183,-0.33576 -1.96809,-0.41102 -0.87183,-0.33575 -0.94528,-0.21444 -0.95459,-0.45092 -1.68553,-1.16971 -0.94993,-0.33268 -3.58045,-1.70943 -2.75716,-0.63161 -0.94993,-0.33268 -0.94034,-0.0888 -2.53338,-0.884669 -1.01797,-0.08575 -0.8723,-0.335738 -0.94499,-0.207048 -0.79867,-0.464463 -1.0231,-0.203973 -0.79914,-0.464444 -1.88998,-0.414097 -0.87183,-0.335755 -0.70154,0.02762 -1.65148,-0.305061 -0.70154,0.02762 -1.65643,-0.430694 -0.94033,-0.08881 -4.01905,-0.952009 -3.15681,-0.860129 -0.94034,-0.08881 -2.12877,-0.530523 -1.17884,-0.197842 -1.18378,-0.323475 -4.63783,-0.809224 -1.02804,-0.329607 -4.32064,-0.688483 -2.11917,-0.286649 -1.10149,-0.20829 -2.19186,-0.15796 -1.10615,-0.326532 -1.17418,-0.0796 -1.18378,-0.323475 -1.08619,0.168589 -1.17418,-0.0796 -1.32498,0.05216 -7.9799,-0.425999 -1.39813,0.180871 -2.81577,-0.133399 -2.82566,-0.384665 -1.33039,-0.07345 -2.60141,-0.637746 -2.07482,-1.146983 -1.78777,-1.780018 -0.66708,-1.083978 -1.86075,-1.658719 -1.04258,-0.699115 -1.05219,-0.942989 -1.04212,-0.699134 -1.11575,-0.570407 -2.36756,-0.646953 -1.01303,0.03988 -1.17913,-0.205234 -1.3205,0.177812 -2.58686,-0.268239 -3.70709,-0.964299 -3.80511,0.519879 -1.09113,0.04296 -1.40803,-0.0704 -1.10568,-0.326552 -1.1108,-0.444776 -2.44054,-0.525656 -1.32545,0.05218 -1.09578,-0.07529 -1.16458,0.164272 -3.38106,-0.607056 -2.23056,-1.140854 -3.1763,-1.355277 -1.68057,-1.04408 -1.38811,-1.551501 -1.24691,-1.927139 -0.63308,-2.195557 v 0"
           style="fill:none;stroke:#e377c2;stroke-width:1.5;stroke-dasharray:1.5, 2.475;stroke-dashoffset:0"
           id="path348" />
      </g>
      <g
         id="line2d_22">
        <path
           clip-path="url(#p952aa9a854)"
           d="m 381.75486,283.64084 0.53573,-0.26534 0.39966,0.22851 -3.83847,-2.31359 -0.65301,-0.71445 -0.64294,-0.47059 -1.70968,-1.78309 -0.41374,-0.59804 -0.64341,-0.47057 -0.90588,-1.2004 -1.71929,-2.02696 -3.51202,-3.9326 -1.23239,-1.55762 -0.58403,-0.96142 -0.65795,-0.84008 -0.73065,-0.71139 -0.42829,-0.96755 -0.96449,-0.70218 -0.42829,-0.96755 -0.80409,-0.59008 -0.5064,-0.96447 -0.88144,-0.57963 -1.3886,-1.55147 -0.79867,-0.46446 -0.5749,-0.71753 -0.80875,-0.70831 -0.99825,-1.55944 -0.41869,-0.72368 -0.73064,-0.71139 -0.49679,-0.7206 -1.2814,-0.81553 -0.57443,-0.71755 -0.7942,-0.33881 -0.5749,-0.71752 -0.88143,-0.57963 -1.46129,-1.42278 -0.65254,-0.71447 -0.49679,-0.7206 -0.5653,-0.47365 -1.38318,-1.42586 -1.77818,-1.53613 -2.89813,-2.2248 -1.12518,-0.82168 -0.8233,-1.07783 -1.0522,-0.94298 -0.81817,-0.9596 -2.30449,-1.01951 -1.12023,-0.69605 -1.18845,-0.44171 -0.89133,-0.8309 -2.16777,-1.52079 -1.05715,-1.06862 -1.19833,-0.69298 -0.9741,-0.94606 -1.04754,-0.82474 -0.97409,-0.94606 -3.51155,-3.93262 -0.97409,-0.94606 -3.53151,-4.42774 -0.66708,-1.08398 -0.81835,-0.95219 -0.89133,-0.83089 -0.66261,-0.95833 -1.05202,-0.95039 -0.9014,-1.07475 -1.78237,-1.6544 -3.03512,-1.7309 -3.48781,-1.34299 -2.30402,-1.01953 -1.1111,-0.45216 -2.23057,-1.14084 -1.18379,-0.32347 -2.46023,-1.01338 -1.11063,-0.45218 -3.51242,-1.95636 -1.10103,-0.2083 -1.10568,-0.32655 -0.84786,0.28503 -1.01303,0.0399 -1.78355,0.31447 -1.09113,0.043 -0.84769,0.27763 -0.79419,-0.33881 -3.05923,-0.36806 -0.54115,0.13973 -0.70154,0.0276 -1.64159,-0.0538 -0.69194,0.2715 -2.17267,0.32979 -4.61853,-0.30667 -0.77452,0.14892 -0.85776,0.0338 -1.69013,0.68827 -1.86118,0.31753 -0.70649,-0.098 -1.00361,0.29117 -0.60423,0.51229 -0.9255,0.2881 -1.13054,1.02892 -3.28419,1.85387 -1.76823,0.69136 -0.91619,0.52457 -0.99895,0.40941 -1.9294,0.57187 -2.18721,-0.0397 -1.08171,0.29424 -0.94034,-0.0888 -3.08857,0.86176 -1.3205,0.17782 -2.16307,0.57367 -3.64938,0.51375 -1.1739,-0.0722 -1.24222,0.16733 -1.17884,-0.19784 -1.2424,0.17474 -2.10958,-0.0428 -3.15682,-0.86013 -1.03747,-0.58089 -1.90454,-0.78361 -1.59828,-0.92889 -1.97752,-0.6623 -0.95954,-0.57656 -1.1012,-0.20089 -1.92432,-1.28614 -3.97428,-3.78858 -1.19834,-0.69299 -0.80874,-0.70832 -1.08619,0.16859 -0.71609,-0.34188 -1.10615,-0.32654 -1.43713,-0.8094 -0.87678,-0.46139 -0.71114,-0.21626 -6.23047,-3.58133 -0.79419,-0.33882 -0.96449,-0.70219 -0.87649,-0.454 -1.61236,-1.29841 -2.25547,-1.76161 -1.23209,-1.55024 -0.95488,-0.45831 -0.57984,-0.84316 -2.32322,-1.50728 -6.83441,-3.06166 -1.91442,-1.03487 -1.59334,-0.80326 -1.11062,-0.45218 -1.60713,-1.1654 -0.88685,-0.70524 -0.95983,-0.58395 -0.56948,-0.59191 -1.75868,-1.04101 -0.79914,-0.46444 -1.10073,-0.20092 -0.8038,-0.58269 -1.67097,-0.8002 -0.89599,-0.94914 -0.47758,-0.23285 -0.88144,-0.57964 -1.47087,-1.66666 -0.89179,-0.83088 -0.66708,-1.08398 -0.73064,-0.7114 -0.50639,-0.96447 -0.80874,-0.70832 -0.27284,-0.98108 -1.31466,-1.67281 -0.18036,-0.60724 -0.58432,-0.96881 -0.16044,-2.08833 -0.57984,-0.84316 0.19021,-1.11773 -0.57908,-0.83579 -0.70653,-2.07424 -0.66213,-0.95834 -0.44778,-1.4627 -1.00318,-1.68508 -0.58944,-1.08703 -0.73064,-0.7114 -0.65747,-0.8401 -0.72569,-0.58576 -0.4241,-0.8493 -0.88143,-0.57963 -0.65748,-0.8401 -0.88685,-0.70525 -1.39277,-1.66974 -0.42857,-0.97494 -0.66755,-1.08396 -1.55811,-1.90749 -0.89179,-0.83088 -0.50639,-0.96447 -1.47582,-1.7923 -3.70671,-4.91677 -0.96913,-0.82044 -1.91937,-1.1605 -0.65253,-0.71447 -1.51028,-0.68071 -3.83801,-4.28986 -0.51134,-1.09011 -0.97408,-0.94607 -0.67203,-1.20961 -2.52335,-2.61705 -4.08188,-2.54829 -0.65748,-0.84011 -4.14501,-4.15195 -1.91937,-1.16051 -1.11109,-0.45217 -1.10073,-0.20092 -3.6536,-1.58074 -1.10568,-0.32655 -2.660313,-0.14693 -2.449858,-0.76214 -1.188728,-0.44911 -2.893445,-2.10657 -1.870817,-1.90258 -0.735289,-0.82964 -0.969427,-0.82783 -0.900923,-1.074771 -1.485414,-2.036177 -0.969427,-0.827825 -2.079759,-1.27262 -4.101662,-3.050826 -1.78282,-1.65439 -0.667075,-1.08398 -0.735579,-0.83703 -1.38291,-3.394705 -0.486757,-2.452972 -0.126397,-1.223689 3.9e-4,-3.952469 -0.583343,-4.906501 1.116426,-3.374669 0.740194,-1.020953 1.652195,-1.663785 2.226327,-0.95363 1.154689,-0.415535 2.323924,-0.461565 1.072106,-0.538112 2.40156,-0.46462 1.257232,0.202161 1.173889,0.07221 1.183781,0.323478 2.236258,1.273861 0.812926,0.826583 1.563809,2.040492 4.25178,6.86414 3.672367,4.044736 0.82329,1.077829 1.05201,0.9504 2.09477,1.642108 6.44436,5.05325 2.52797,0.759067 1.18378,0.323478 2.33847,-0.09206 1.23774,-0.292979 1.24734,-0.0491 2.71352,-0.476904 1.32497,-0.05216 1.31585,-0.296054 1.39813,-0.180869 1.32498,-0.05216 2.71846,-0.351272 1.40309,-0.05524 1.24239,-0.174738 3.9754,-0.156503 1.41763,0.314271 1.32992,0.07347 5.49529,0.768074 6.47926,1.965403 3.57549,1.583811 2.4551,0.895161 1.25199,0.06914 1.10103,0.208309 3.90736,0.09042 1.23728,-0.292962 1.32049,-0.177814 1.24688,-0.04909 2.56272,-0.345144 1.32544,-0.05218 1.39814,-0.180871 1.32498,-0.05216 1.40803,0.07039 1.25694,0.194768 1.32992,0.07347 1.33458,0.191712 2.60141,0.637744 1.19339,0.56735 2.24092,1.392097 2.09925,1.767753 0.81864,0.959586 1.95311,2.017762 1.79272,1.90565 0.82748,1.19609 1.63203,1.78615 1.86541,1.77696 3.2054,2.09428 2.30401,1.01953 2.3139,1.2708 1.11575,0.5704 1.04212,0.69914 1.19339,0.56735 5.53386,3.73458 1.12535,0.81428 2.40161,1.5116 4.07723,2.43004 3.25395,1.35221 1.35902,0.81248 4.3012,2.16957 0.97438,0.95345 0.6335,0.21931 2.31856,1.38904 1.69018,1.28795 1.27644,0.6899 2.41121,1.75547 0.96943,0.82782 1.11063,0.45218 1.27644,0.68991 2.46441,1.13164 0.56529,0.47365 1.60742,1.17278 0.8915,0.82348 0.63799,0.34497 1.45167,1.17891 0.49185,0.59497 1.52483,1.0502 3.31709,2.95587 1.60247,1.04715 0.74025,0.95527 0.8723,0.33574 0.96943,0.82782 0.70649,0.098 3.25861,1.47045 1.68057,1.04407 1.27179,0.57166 1.02757,0.32963 1.2715,0.56427 2.09431,1.64212 6.8,6.14946 1.04259,0.69911 0.49185,0.59496 4.76382,4.00915 1.21783,1.18812 0.74519,1.0809 0.5064,0.96448 0.74518,1.0809 2.35732,4.34814 1.22743,1.432 1.07664,1.56376 1.64117,2.03003 0.5845,0.9614 5.03172,4.86459 0.96914,0.82043 0.89628,0.95652 0.96449,0.70219 0.74024,0.95526 1.86094,1.65131 0.74519,1.0809 2.5325,2.86093 1.78313,1.66177 1.70968,1.78308 0.67174,1.20222 0.81369,0.83395 0.58945,1.08703 0.97409,0.94606 0.58898,1.08705 2.15327,3.12752 0.97904,1.07169 0.66214,0.95834 0.81369,0.83395 0.58898,1.08705 0.8134,0.82656 0.66709,1.08398 0.88685,0.70524 0.73559,0.83702 0.96449,0.70219 0.74519,1.0809 1.62662,1.66053 2.07018,1.02873 1.19368,0.57473 2.00214,1.27566 1.93858,1.64825 0.81864,0.95958 1.04678,0.81737 2.63058,3.35297 3.58005,3.68567 0.97409,0.94606 0.74519,1.0809 1.71463,1.90872 0.74985,1.19914 0.89628,0.95653 1.41274,2.16485 0.89599,0.94914 0.67203,1.2096 1.49504,2.28004 0.66755,1.08396 2.37636,4.8433 0.74025,0.95527 0.59439,1.21266 0.74519,1.0809 0.51135,1.09011 1.32969,2.0423 0.58898,1.08705 0.6629,0.96571 1.18803,2.41796 2.97582,4.19796 1.18833,2.42534 2.53764,2.97915 0.74519,1.0809 2.75228,2.48219 1.86543,1.77695 1.12023,0.69606 0.6725,1.20958 0.66214,0.95835 0.58945,1.08703 1.02764,2.30584 1.17349,2.04845 1.54434,1.54534 0.56948,0.59191 -0.15574,0.006 v 0"
           style="fill:none;stroke:#7f7f7f;stroke-width:1.5;stroke-dasharray:1.5, 2.475;stroke-dashoffset:0"
           id="path351" />
      </g>
      <g
         id="patch_3">
        <path
           d="M 57.6,307.584 V 41.472"
           style="fill:none;stroke:#000000;stroke-width:0.8;stroke-linecap:square;stroke-linejoin:miter"
           id="path354" />
      </g>
      <g
         id="patch_4">
        <path
           d="M 414.72,307.584 V 41.472"
           style="fill:none;stroke:#000000;stroke-width:0.8;stroke-linecap:square;stroke-linejoin:miter"
           id="path357" />
      </g>
      <g
         id="patch_5">
        <path
           d="M 57.6,307.584 H 414.72"
           style="fill:none;stroke:#000000;stroke-width:0.8;stroke-linecap:square;stroke-linejoin:miter"
           id="path360" />
      </g>
      <g
         id="patch_6">
        <path
           d="M 57.6,41.472 H 414.72"
           style="fill:none;stroke:#000000;stroke-width:0.8;stroke-linecap:square;stroke-linejoin:miter"
           id="path363" />
      </g>
    </g>
  </g>
  <defs
     id="defs371">
    <clipPath
       id="p952aa9a854">
      <rect
         height="266.112"
         width="357.12"
         x="57.599998"
         y="41.472"
         id="rect368" />
    </clipPath>
  </defs>
</svg>
